<?xml version="1.0" encoding="utf-8"?>
<!-- Generator: Adobe Illustrator 25.0.1, SVG Export Plug-In . SVG Version: 6.00 Build 0)  -->
<svg version="1.1" id="Ebene_1" xmlns="http://www.w3.org/2000/svg" xmlns:xlink="http://www.w3.org/1999/xlink" x="0px" y="0px"
	 viewBox="0 0 50 50" style="enable-background:new 0 0 50 50;" xml:space="preserve">
<style type="text/css">
	.st0{fill:#FFFFFF;}
</style>
<g>
	<path class="st0" d="M25.2,49.5c-1,0-2,0-2.5-0.1l-0.6-3.5c-0.4-2.6-0.4-2.6-0.4-2.7c-0.1-0.4-0.4-0.4-1-0.6
		c-1.6-0.4-3.4-1.1-4.8-1.9l-0.7-0.4l-3,2.1c-1.3,0.9-2.1,1.5-2.5,1.7c-0.3-0.3-1-0.8-1.6-1.5c-0.7-0.6-1.8-1.9-2.2-2.4
		C6.2,39.9,9.8,35,9.8,35l-0.3-0.4c-0.2-0.3-0.7-1.2-0.9-1.7c-0.6-1.2-0.9-2.3-1.3-3.7c-0.1-0.4-0.4-0.5-0.8-0.6
		c-0.5-0.1-4.9-0.9-5.8-1l0-0.2c-0.1-0.9-0.1-2.7,0-3.6c0-0.5,0.1-1.3,0.1-1.7c0.5-0.1,1.7-0.3,2.9-0.5C7,21,7,21,7.1,20.9l0.2-0.1
		l0-0.4c0-0.1,0.4-1.2,0.6-1.7c0.4-1,1-2.4,1.5-3.1c0.2-0.3,0.2-0.4,0.2-0.5c0-0.2,0-0.2-1.8-2.8L5.9,9.6c0.7-0.8,2.1-2.3,2.9-3
		C9.3,6.2,9.7,5.8,10,5.6c0.4,0.3,1.3,0.9,2.4,1.7c2.7,1.9,2.7,2,2.8,2l0.1,0.1l0.2,0c0.2,0,0.4-0.1,0.8-0.3c1.2-0.7,3-1.4,4.1-1.6
		l0.5-0.1L21,6.8c0-0.1,0.3-1.6,0.6-3.3c0.2-1.2,0.4-2.3,0.5-2.8c0.2,0,0.6,0,0.9-0.1c0.4,0,0.6-0.1,1.2-0.1c0.2,0,0.5,0,0.8,0
		c1.4,0,1.8,0,2.9,0.2l0.1,0l0.5,2.9c0.5,3.3,0.6,3.5,0.7,3.6c0.1,0.1,0.2,0.1,0.5,0.2c1.2,0.3,2.6,0.9,3.8,1.5
		C34,9.2,34,9.2,34.2,9.2c0.2,0,0.2,0,3.1-2l2.5-1.7C40.6,6,42,7.3,42.7,8.1c0.4,0.5,1,1.1,1.3,1.4c-0.3,0.4-0.9,1.3-1.7,2.4
		c-2,2.8-2,2.8-2,3c0,0.2,0,0.2,0.4,0.8c0.4,0.6,1.1,2,1.3,2.6c0.1,0.2,0.3,0.7,0.4,1l0.3,0.9l3.6,0.7c1.6,0.3,2.6,0.5,3,0.6
		c0.1,0.4,0.2,1.2,0.2,1.8c0.1,0.9,0.1,2.4,0.1,3.4c0,0.2,0,0.4,0,0.6c-0.4,0.1-1.1,0.2-1.9,0.3c-1.3,0.2-2.7,0.4-3.3,0.5l-1.3,0.2
		l-0.1,0.5c-0.5,2.1-0.8,3-1.5,4.5l-0.5,1l2.1,3.1c1.1,1.6,1.5,2.3,1.7,2.6c-0.2,0.3-0.7,0.8-0.9,1.2c-0.8,0.9-1.7,1.9-2.6,2.7
		c0,0-0.2,0.2-0.2,0.2c-0.3-0.2-1.1-0.7-2.3-1.7c-2.8-2-2.8-2-2.8-2l-0.1,0l-0.1,0c-0.1,0-0.2,0-0.7,0.3c-0.9,0.6-2.1,1.2-3.2,1.6
		c-0.5,0.2-1.4,0.5-1.7,0.6l-0.5,0.1l-0.3,1.6c-0.5,2.9-0.8,4.5-1,5.1c-0.4,0-1.1,0.1-1.6,0.1C26.3,49.5,25.7,49.5,25.2,49.5z
		 M25,10.4c-8.1,0-14.6,6.6-14.6,14.6S16.9,39.6,25,39.6S39.6,33.1,39.6,25S33.1,10.4,25,10.4z"/>
	<path d="M24.2,1c0.2,0,0.5,0,0.8,0c1.2,0,1.7,0,2.5,0.1l0.4,2.6c0.6,3.7,0.6,3.8,1,4c0.1,0.1,0.3,0.1,0.6,0.2
		c1.2,0.3,2.5,0.9,3.7,1.5c0.5,0.3,0.7,0.4,0.9,0.4c0.4,0,0.4,0,3.4-2.1l2.2-1.5c0.8,0.6,1.9,1.7,2.6,2.4c0.3,0.4,0.7,0.8,1,1.1
		c-0.3,0.4-0.8,1.2-1.5,2.1c-2.1,2.9-2.1,2.9-2.1,3.3c0,0.3,0.1,0.4,0.5,1.1c0.3,0.6,1,2,1.3,2.6c0.1,0.2,0.2,0.7,0.4,1l0.2,0.6
		l0.2,0.6l0.6,0.1l3.3,0.6c1.2,0.2,2.1,0.4,2.7,0.5c0.1,0.4,0.1,0.9,0.2,1.4c0.1,0.9,0.1,2.3,0.1,3.3c0,0.1,0,0.1,0,0.2
		c-0.4,0.1-0.9,0.1-1.5,0.3c-1.3,0.2-2.8,0.4-3.3,0.5l-1,0.2l-0.7,0.1l-0.2,0.7l0,0.1c-0.5,2-0.8,2.9-1.5,4.4l-0.4,0.8l-0.3,0.5
		l0.3,0.5l1.9,2.8c0.8,1.2,1.3,1.9,1.5,2.2c-0.2,0.3-0.5,0.6-0.7,0.9c-0.7,0.9-1.6,1.8-2.5,2.5c-0.4-0.3-1-0.7-1.9-1.4l-0.1,0
		c-2.2-1.6-2.6-1.9-2.8-2l0,0l-0.2-0.1h-0.3c-0.2,0-0.5,0.1-1,0.4c-0.8,0.5-2,1.1-3.1,1.6C31,41.6,30.1,42,29.8,42l-0.2,0L29,42.2
		l-0.1,0.6l-0.2,1.3c-0.5,2.7-0.8,4.1-0.9,4.7c-0.4,0-0.8,0.1-1.2,0.1c-0.2,0-0.7,0-1.4,0c-0.7,0-1.5,0-2,0L23,48.2
		c-0.1-0.6-0.2-1.5-0.4-2.4c-0.4-2.6-0.4-2.6-0.4-2.7c-0.2-0.7-0.8-0.8-1.3-1c-1.6-0.4-3.3-1-4.7-1.9l-0.4-0.2l-0.5-0.3l-0.5,0.4
		l-2.8,1.9c-1.1,0.7-1.8,1.2-2.2,1.5c-0.3-0.3-0.8-0.7-1.4-1.2c-0.6-0.5-1.4-1.5-1.9-2c0.4-0.5,0.9-1.3,1.5-2.1l1.9-2.7l0.4-0.6
		L10,34.4l-0.1-0.1C9.7,34,9.2,33.1,9,32.7c-0.5-1.1-0.9-2.2-1.3-3.6c-0.2-0.8-0.8-0.9-1.2-0.9c-0.5-0.1-4.1-0.7-5.5-1
		C1,26.2,1,24.5,1,23.7c0-0.4,0.1-0.9,0.1-1.3c0.6-0.1,1.4-0.2,2.5-0.4c3.5-0.5,3.5-0.5,3.7-0.7c0.3-0.2,0.5-0.5,0.5-0.8
		c0.1-0.2,0.4-1.2,0.5-1.7c0.3-0.9,1-2.3,1.4-3c0.2-0.3,0.3-0.6,0.3-0.8c0-0.3,0-0.3-1.9-3.1L6.6,9.6c0.7-0.8,1.9-2,2.6-2.7
		C9.5,6.7,9.8,6.4,10,6.2c0.5,0.3,1.2,0.9,2.1,1.5c2.7,1.9,2.7,2,2.8,2c0.2,0.1,0.4,0.2,0.6,0.2c0.3,0,0.6-0.1,1-0.4
		c1.2-0.6,2.9-1.3,4-1.6l0.2,0l0.6-0.1l0.1-0.6l0-0.2c0-0.1,0.3-1.8,0.6-3.3c0.2-1,0.3-1.9,0.5-2.5c0.2,0,0.4,0,0.5-0.1
		C23.4,1,23.6,1,24.2,1 M25,40.1c8.3,0,15.1-6.8,15.1-15.1S33.3,9.9,25,9.9S9.9,16.7,9.9,25S16.7,40.1,25,40.1 M24.2,0
		c-0.6,0-0.8,0-1.2,0.1c-0.3,0-0.8,0.1-0.9,0.1c-0.3,0-0.3,0-0.3,0.1c0,0.1-0.3,1.5-0.6,3.2c-0.3,1.7-0.6,3.2-0.6,3.3l0,0.2l-0.2,0
		c-1.1,0.3-3,1-4.2,1.7c-0.4,0.2-0.5,0.3-0.6,0.3c0,0,0,0-0.1,0c0,0-1.3-0.9-2.7-2C11.2,5.9,10,5,10,5c0,0-0.8,0.6-1.5,1.2
		C7.6,7,6.1,8.6,5.4,9.4L5.3,9.6l0.2,0.3c0.1,0.1,0.9,1.4,1.9,2.8c0.9,1.4,1.7,2.5,1.7,2.5c0,0-0.1,0.1-0.1,0.3
		c-0.4,0.7-1.1,2.1-1.5,3.2c-0.2,0.6-0.6,1.8-0.6,1.9c0,0,0,0.1,0,0.1c0,0-1.5,0.3-3.3,0.5c-1.8,0.3-3.3,0.5-3.3,0.5
		c0,0-0.1,1.4-0.2,2.1c-0.1,0.9,0,2.8,0,3.7l0,0.6l0.2,0c0.3,0.1,5.5,1,6,1.1c0.4,0.1,0.4,0.1,0.4,0.2c0.4,1.5,0.8,2.6,1.3,3.8
		c0.2,0.5,0.7,1.4,1,1.8L9.2,35l-1.9,2.7c-1.1,1.5-2,2.7-2,2.7c-0.1,0.1,1.6,2,2.5,2.8c0.8,0.8,1.8,1.6,2,1.7c0,0,0,0,0,0
		c0,0,1.3-0.8,2.8-1.9l2.8-1.9l0.4,0.2c1.5,0.9,3.3,1.6,4.9,2c0.5,0.1,0.6,0.1,0.6,0.2c0,0,0.2,1.2,0.4,2.6c0.2,1.4,0.4,2.8,0.5,3.2
		l0.1,0.7l0.3,0c0.4,0,1.6,0.1,2.6,0.1c0.6,0,1.1,0,1.4,0c0.8,0,2-0.2,2-0.2c0,0,0.4-2,1-5.4l0.2-1.3l0.2,0c0.3-0.1,1.3-0.4,1.8-0.6
		c1.1-0.4,2.4-1.1,3.2-1.6c0.2-0.1,0.4-0.2,0.4-0.2c0,0,0,0,0,0c0,0,1.2,0.9,2.7,2c2.2,1.6,2.6,1.9,2.7,1.9c0,0,0,0,0.1,0
		c0,0,0.2-0.2,0.4-0.4c0.9-0.8,1.9-1.8,2.7-2.7c0.4-0.4,1.1-1.3,1.2-1.5c0,0-0.7-1.1-1.9-2.9l-1.9-2.8l0.4-0.8
		c0.7-1.5,1.1-2.5,1.6-4.6l0-0.1l1-0.2c0.5-0.1,2-0.3,3.3-0.5c1.3-0.2,2.3-0.4,2.3-0.4c0,0,0-0.4,0.1-0.9c0.1-1.1,0-2.5-0.1-3.5
		c-0.1-0.8-0.3-2.1-0.3-2.1c0,0-1.5-0.3-3.4-0.6l-3.3-0.6l-0.2-0.6c-0.1-0.3-0.3-0.8-0.4-1c-0.2-0.6-1-2.1-1.3-2.7
		c-0.2-0.3-0.3-0.5-0.3-0.5c0,0,0.9-1.2,2-2.7c1.1-1.5,1.9-2.7,1.9-2.7c0-0.1-0.9-1.1-1.5-1.7C42.3,6.9,40.8,5.5,40,5l-0.2-0.1
		L37,6.8c-1.5,1.1-2.8,1.9-2.9,1.9c0,0-0.2-0.1-0.5-0.2c-1.2-0.6-2.6-1.2-3.9-1.6c-0.2,0-0.4-0.1-0.4-0.1c0,0-0.3-1.5-0.5-3.3
		l-0.5-3.3l-0.4,0C26.9,0,26.4,0,25,0C24.7,0,24.4,0,24.2,0L24.2,0z M25,39.1c-7.8,0-14.1-6.3-14.1-14.1S17.2,10.9,25,10.9
		c7.8,0,14.1,6.3,14.1,14.1S32.8,39.1,25,39.1L25,39.1z"/>
</g>
</svg>
